<mxfile host="app.diagrams.net" modified="2022-05-13T08:26:14.991Z" agent="5.0 (Windows NT 10.0; Win64; x64) AppleWebKit/537.36 (KHTML, like Gecko) Chrome/101.0.4951.64 Safari/537.36" etag="8o6Waw45sLds8c0iQ-ny" version="18.0.3" type="github">
  <diagram id="ILHfGPeh-TraK1wzI0Kx" name="Page-1">
    <mxGraphModel dx="1303" dy="727" grid="1" gridSize="10" guides="1" tooltips="1" connect="1" arrows="1" fold="1" page="1" pageScale="1" pageWidth="827" pageHeight="1169" math="0" shadow="0">
      <root>
        <mxCell id="0" />
        <mxCell id="1" parent="0" />
        <mxCell id="59LHeVAlmlEeKIpCH-CL-5" style="rounded=0;orthogonalLoop=1;jettySize=auto;html=1;exitX=0;exitY=1;exitDx=0;exitDy=0;entryX=1;entryY=0;entryDx=0;entryDy=0;endArrow=none;endFill=0;" edge="1" parent="1" source="59LHeVAlmlEeKIpCH-CL-1" target="59LHeVAlmlEeKIpCH-CL-3">
          <mxGeometry relative="1" as="geometry" />
        </mxCell>
        <mxCell id="59LHeVAlmlEeKIpCH-CL-6" style="edgeStyle=none;rounded=0;orthogonalLoop=1;jettySize=auto;html=1;exitX=1;exitY=1;exitDx=0;exitDy=0;entryX=0;entryY=0;entryDx=0;entryDy=0;endArrow=none;endFill=0;" edge="1" parent="1" source="59LHeVAlmlEeKIpCH-CL-1" target="59LHeVAlmlEeKIpCH-CL-4">
          <mxGeometry relative="1" as="geometry" />
        </mxCell>
        <mxCell id="59LHeVAlmlEeKIpCH-CL-1" value="0" style="ellipse;whiteSpace=wrap;html=1;aspect=fixed;" vertex="1" parent="1">
          <mxGeometry x="211" y="50" width="40" height="40" as="geometry" />
        </mxCell>
        <mxCell id="59LHeVAlmlEeKIpCH-CL-3" value="1" style="ellipse;whiteSpace=wrap;html=1;aspect=fixed;" vertex="1" parent="1">
          <mxGeometry x="111" y="110" width="40" height="40" as="geometry" />
        </mxCell>
        <mxCell id="59LHeVAlmlEeKIpCH-CL-4" value="5" style="ellipse;whiteSpace=wrap;html=1;aspect=fixed;" vertex="1" parent="1">
          <mxGeometry x="311" y="110" width="40" height="40" as="geometry" />
        </mxCell>
        <mxCell id="59LHeVAlmlEeKIpCH-CL-7" style="rounded=0;orthogonalLoop=1;jettySize=auto;html=1;exitX=0;exitY=1;exitDx=0;exitDy=0;entryX=1;entryY=0;entryDx=0;entryDy=0;endArrow=none;endFill=0;" edge="1" parent="1" source="59LHeVAlmlEeKIpCH-CL-3" target="59LHeVAlmlEeKIpCH-CL-10">
          <mxGeometry relative="1" as="geometry">
            <mxPoint x="116.85786437626894" y="144.14213562373106" as="sourcePoint" />
          </mxGeometry>
        </mxCell>
        <mxCell id="59LHeVAlmlEeKIpCH-CL-8" style="edgeStyle=none;rounded=0;orthogonalLoop=1;jettySize=auto;html=1;exitX=1;exitY=1;exitDx=0;exitDy=0;entryX=0;entryY=0;entryDx=0;entryDy=0;endArrow=none;endFill=0;" edge="1" parent="1" source="59LHeVAlmlEeKIpCH-CL-3" target="59LHeVAlmlEeKIpCH-CL-11">
          <mxGeometry relative="1" as="geometry">
            <mxPoint x="145.14213562373106" y="144.14213562373106" as="sourcePoint" />
          </mxGeometry>
        </mxCell>
        <mxCell id="59LHeVAlmlEeKIpCH-CL-10" value="" style="ellipse;whiteSpace=wrap;html=1;aspect=fixed;" vertex="1" parent="1">
          <mxGeometry x="51" y="170" width="40" height="40" as="geometry" />
        </mxCell>
        <mxCell id="59LHeVAlmlEeKIpCH-CL-11" value="" style="ellipse;whiteSpace=wrap;html=1;aspect=fixed;" vertex="1" parent="1">
          <mxGeometry x="171" y="170" width="40" height="40" as="geometry" />
        </mxCell>
        <mxCell id="59LHeVAlmlEeKIpCH-CL-12" style="rounded=0;orthogonalLoop=1;jettySize=auto;html=1;exitX=0;exitY=1;exitDx=0;exitDy=0;entryX=1;entryY=0;entryDx=0;entryDy=0;endArrow=none;endFill=0;" edge="1" parent="1" target="59LHeVAlmlEeKIpCH-CL-14" source="59LHeVAlmlEeKIpCH-CL-4">
          <mxGeometry relative="1" as="geometry">
            <mxPoint x="316.85786437626894" y="144.14213562373106" as="sourcePoint" />
          </mxGeometry>
        </mxCell>
        <mxCell id="59LHeVAlmlEeKIpCH-CL-13" style="edgeStyle=none;rounded=0;orthogonalLoop=1;jettySize=auto;html=1;exitX=1;exitY=1;exitDx=0;exitDy=0;entryX=0;entryY=0;entryDx=0;entryDy=0;endArrow=none;endFill=0;" edge="1" parent="1" target="59LHeVAlmlEeKIpCH-CL-15" source="59LHeVAlmlEeKIpCH-CL-4">
          <mxGeometry relative="1" as="geometry">
            <mxPoint x="345.14213562373106" y="144.14213562373106" as="sourcePoint" />
          </mxGeometry>
        </mxCell>
        <mxCell id="59LHeVAlmlEeKIpCH-CL-14" value="" style="ellipse;whiteSpace=wrap;html=1;aspect=fixed;" vertex="1" parent="1">
          <mxGeometry x="251" y="170" width="40" height="40" as="geometry" />
        </mxCell>
        <mxCell id="59LHeVAlmlEeKIpCH-CL-15" value="6" style="ellipse;whiteSpace=wrap;html=1;aspect=fixed;" vertex="1" parent="1">
          <mxGeometry x="371" y="170" width="40" height="40" as="geometry" />
        </mxCell>
        <mxCell id="59LHeVAlmlEeKIpCH-CL-16" value="7" style="ellipse;whiteSpace=wrap;html=1;aspect=fixed;" vertex="1" parent="1">
          <mxGeometry x="251" y="170" width="40" height="40" as="geometry" />
        </mxCell>
        <mxCell id="59LHeVAlmlEeKIpCH-CL-17" value="2" style="ellipse;whiteSpace=wrap;html=1;aspect=fixed;" vertex="1" parent="1">
          <mxGeometry x="51" y="170" width="40" height="40" as="geometry" />
        </mxCell>
        <mxCell id="59LHeVAlmlEeKIpCH-CL-18" value="4" style="ellipse;whiteSpace=wrap;html=1;aspect=fixed;" vertex="1" parent="1">
          <mxGeometry x="171" y="170" width="40" height="40" as="geometry" />
        </mxCell>
        <mxCell id="59LHeVAlmlEeKIpCH-CL-19" style="rounded=0;orthogonalLoop=1;jettySize=auto;html=1;exitX=0;exitY=1;exitDx=0;exitDy=0;entryX=0.5;entryY=0;entryDx=0;entryDy=0;endArrow=none;endFill=0;" edge="1" parent="1" source="59LHeVAlmlEeKIpCH-CL-17" target="59LHeVAlmlEeKIpCH-CL-25">
          <mxGeometry relative="1" as="geometry">
            <mxPoint x="56.857864376268935" y="200.00213562373108" as="sourcePoint" />
            <mxPoint x="25.142135623731065" y="237.57786437626896" as="targetPoint" />
          </mxGeometry>
        </mxCell>
        <mxCell id="59LHeVAlmlEeKIpCH-CL-25" value="3" style="ellipse;whiteSpace=wrap;html=1;aspect=fixed;" vertex="1" parent="1">
          <mxGeometry x="11" y="250" width="40" height="40" as="geometry" />
        </mxCell>
        <mxCell id="59LHeVAlmlEeKIpCH-CL-30" style="rounded=0;orthogonalLoop=1;jettySize=auto;html=1;exitX=0;exitY=1;exitDx=0;exitDy=0;entryX=1;entryY=0;entryDx=0;entryDy=0;endArrow=none;endFill=0;" edge="1" parent="1" source="59LHeVAlmlEeKIpCH-CL-32" target="59LHeVAlmlEeKIpCH-CL-33">
          <mxGeometry relative="1" as="geometry" />
        </mxCell>
        <mxCell id="59LHeVAlmlEeKIpCH-CL-31" style="edgeStyle=none;rounded=0;orthogonalLoop=1;jettySize=auto;html=1;exitX=1;exitY=1;exitDx=0;exitDy=0;entryX=0;entryY=0;entryDx=0;entryDy=0;endArrow=none;endFill=0;" edge="1" parent="1" source="59LHeVAlmlEeKIpCH-CL-32" target="59LHeVAlmlEeKIpCH-CL-34">
          <mxGeometry relative="1" as="geometry" />
        </mxCell>
        <mxCell id="59LHeVAlmlEeKIpCH-CL-54" style="edgeStyle=orthogonalEdgeStyle;rounded=0;orthogonalLoop=1;jettySize=auto;html=1;exitX=0;exitY=0;exitDx=0;exitDy=0;entryX=0.333;entryY=0.017;entryDx=0;entryDy=0;entryPerimeter=0;endArrow=classic;endFill=1;curved=1;dashed=1;" edge="1" parent="1" source="59LHeVAlmlEeKIpCH-CL-32" target="59LHeVAlmlEeKIpCH-CL-33">
          <mxGeometry relative="1" as="geometry">
            <Array as="points">
              <mxPoint x="221" y="351" />
              <mxPoint x="221" y="345" />
              <mxPoint x="134" y="345" />
            </Array>
          </mxGeometry>
        </mxCell>
        <mxCell id="59LHeVAlmlEeKIpCH-CL-32" value="AVAIL" style="ellipse;whiteSpace=wrap;html=1;aspect=fixed;" vertex="1" parent="1">
          <mxGeometry x="221" y="345" width="40" height="40" as="geometry" />
        </mxCell>
        <mxCell id="59LHeVAlmlEeKIpCH-CL-33" value="1" style="ellipse;whiteSpace=wrap;html=1;aspect=fixed;" vertex="1" parent="1">
          <mxGeometry x="121" y="405" width="40" height="40" as="geometry" />
        </mxCell>
        <mxCell id="59LHeVAlmlEeKIpCH-CL-34" value="5" style="ellipse;whiteSpace=wrap;html=1;aspect=fixed;" vertex="1" parent="1">
          <mxGeometry x="321" y="405" width="40" height="40" as="geometry" />
        </mxCell>
        <mxCell id="59LHeVAlmlEeKIpCH-CL-35" style="rounded=0;orthogonalLoop=1;jettySize=auto;html=1;exitX=0;exitY=1;exitDx=0;exitDy=0;entryX=1;entryY=0;entryDx=0;entryDy=0;endArrow=none;endFill=0;" edge="1" parent="1" source="59LHeVAlmlEeKIpCH-CL-33" target="59LHeVAlmlEeKIpCH-CL-37">
          <mxGeometry relative="1" as="geometry">
            <mxPoint x="126.85786437626894" y="439.14213562373106" as="sourcePoint" />
          </mxGeometry>
        </mxCell>
        <mxCell id="59LHeVAlmlEeKIpCH-CL-36" style="edgeStyle=none;rounded=0;orthogonalLoop=1;jettySize=auto;html=1;exitX=1;exitY=1;exitDx=0;exitDy=0;entryX=0;entryY=0;entryDx=0;entryDy=0;endArrow=none;endFill=0;" edge="1" parent="1" source="59LHeVAlmlEeKIpCH-CL-33" target="59LHeVAlmlEeKIpCH-CL-38">
          <mxGeometry relative="1" as="geometry">
            <mxPoint x="155.14213562373106" y="439.14213562373106" as="sourcePoint" />
          </mxGeometry>
        </mxCell>
        <mxCell id="59LHeVAlmlEeKIpCH-CL-37" value="" style="ellipse;whiteSpace=wrap;html=1;aspect=fixed;" vertex="1" parent="1">
          <mxGeometry x="61" y="465" width="40" height="40" as="geometry" />
        </mxCell>
        <mxCell id="59LHeVAlmlEeKIpCH-CL-38" value="" style="ellipse;whiteSpace=wrap;html=1;aspect=fixed;" vertex="1" parent="1">
          <mxGeometry x="181" y="465" width="40" height="40" as="geometry" />
        </mxCell>
        <mxCell id="59LHeVAlmlEeKIpCH-CL-39" style="rounded=0;orthogonalLoop=1;jettySize=auto;html=1;exitX=0;exitY=1;exitDx=0;exitDy=0;entryX=1;entryY=0;entryDx=0;entryDy=0;endArrow=none;endFill=0;" edge="1" parent="1" source="59LHeVAlmlEeKIpCH-CL-34" target="59LHeVAlmlEeKIpCH-CL-41">
          <mxGeometry relative="1" as="geometry">
            <mxPoint x="326.85786437626894" y="439.14213562373106" as="sourcePoint" />
          </mxGeometry>
        </mxCell>
        <mxCell id="59LHeVAlmlEeKIpCH-CL-40" style="edgeStyle=none;rounded=0;orthogonalLoop=1;jettySize=auto;html=1;exitX=1;exitY=1;exitDx=0;exitDy=0;entryX=0;entryY=0;entryDx=0;entryDy=0;endArrow=none;endFill=0;" edge="1" parent="1" source="59LHeVAlmlEeKIpCH-CL-34" target="59LHeVAlmlEeKIpCH-CL-42">
          <mxGeometry relative="1" as="geometry">
            <mxPoint x="355.14213562373106" y="439.14213562373106" as="sourcePoint" />
          </mxGeometry>
        </mxCell>
        <mxCell id="59LHeVAlmlEeKIpCH-CL-41" value="" style="ellipse;whiteSpace=wrap;html=1;aspect=fixed;" vertex="1" parent="1">
          <mxGeometry x="261" y="465" width="40" height="40" as="geometry" />
        </mxCell>
        <mxCell id="59LHeVAlmlEeKIpCH-CL-42" value="6" style="ellipse;whiteSpace=wrap;html=1;aspect=fixed;" vertex="1" parent="1">
          <mxGeometry x="381" y="465" width="40" height="40" as="geometry" />
        </mxCell>
        <mxCell id="59LHeVAlmlEeKIpCH-CL-44" value="7" style="ellipse;whiteSpace=wrap;html=1;aspect=fixed;" vertex="1" parent="1">
          <mxGeometry x="261" y="465" width="40" height="40" as="geometry" />
        </mxCell>
        <mxCell id="59LHeVAlmlEeKIpCH-CL-45" value="2" style="ellipse;whiteSpace=wrap;html=1;aspect=fixed;" vertex="1" parent="1">
          <mxGeometry x="61" y="465" width="40" height="40" as="geometry" />
        </mxCell>
        <mxCell id="59LHeVAlmlEeKIpCH-CL-46" value="4" style="ellipse;whiteSpace=wrap;html=1;aspect=fixed;" vertex="1" parent="1">
          <mxGeometry x="181" y="465" width="40" height="40" as="geometry" />
        </mxCell>
        <mxCell id="59LHeVAlmlEeKIpCH-CL-47" style="rounded=0;orthogonalLoop=1;jettySize=auto;html=1;exitX=0;exitY=1;exitDx=0;exitDy=0;entryX=0.5;entryY=0;entryDx=0;entryDy=0;endArrow=none;endFill=0;" edge="1" parent="1" source="59LHeVAlmlEeKIpCH-CL-45" target="59LHeVAlmlEeKIpCH-CL-52">
          <mxGeometry relative="1" as="geometry">
            <mxPoint x="66.85786437626894" y="495.0021356237311" as="sourcePoint" />
            <mxPoint x="35.142135623731065" y="532.577864376269" as="targetPoint" />
          </mxGeometry>
        </mxCell>
        <mxCell id="59LHeVAlmlEeKIpCH-CL-52" value="3" style="ellipse;whiteSpace=wrap;html=1;aspect=fixed;" vertex="1" parent="1">
          <mxGeometry x="21" y="545" width="40" height="40" as="geometry" />
        </mxCell>
        <mxCell id="59LHeVAlmlEeKIpCH-CL-55" style="edgeStyle=orthogonalEdgeStyle;rounded=0;orthogonalLoop=1;jettySize=auto;html=1;exitX=0;exitY=0.5;exitDx=0;exitDy=0;entryX=0;entryY=0;entryDx=0;entryDy=0;endArrow=classic;endFill=1;curved=1;dashed=1;" edge="1" parent="1" source="59LHeVAlmlEeKIpCH-CL-33" target="59LHeVAlmlEeKIpCH-CL-45">
          <mxGeometry relative="1" as="geometry">
            <mxPoint x="140.99786437626892" y="410.85786437626894" as="sourcePoint" />
            <mxPoint x="48.45999999999992" y="465.67999999999995" as="targetPoint" />
            <Array as="points">
              <mxPoint x="121" y="415" />
              <mxPoint x="67" y="415" />
            </Array>
          </mxGeometry>
        </mxCell>
        <mxCell id="59LHeVAlmlEeKIpCH-CL-56" style="edgeStyle=orthogonalEdgeStyle;rounded=0;orthogonalLoop=1;jettySize=auto;html=1;exitX=0;exitY=0.5;exitDx=0;exitDy=0;entryX=0;entryY=0;entryDx=0;entryDy=0;endArrow=classic;endFill=1;curved=1;dashed=1;" edge="1" parent="1" target="59LHeVAlmlEeKIpCH-CL-52">
          <mxGeometry relative="1" as="geometry">
            <mxPoint x="61" y="485" as="sourcePoint" />
            <mxPoint x="6.857864376268935" y="530.8578643762689" as="targetPoint" />
            <Array as="points">
              <mxPoint x="21" y="485" />
              <mxPoint x="21" y="525" />
              <mxPoint x="27" y="525" />
            </Array>
          </mxGeometry>
        </mxCell>
        <mxCell id="59LHeVAlmlEeKIpCH-CL-77" value="0#" style="rounded=0;whiteSpace=wrap;html=1;strokeColor=none;" vertex="1" parent="1">
          <mxGeometry x="226" y="20" width="10" height="30" as="geometry" />
        </mxCell>
        <mxCell id="59LHeVAlmlEeKIpCH-CL-78" value="1#" style="rounded=0;whiteSpace=wrap;html=1;strokeColor=none;" vertex="1" parent="1">
          <mxGeometry x="121" y="80" width="10" height="30" as="geometry" />
        </mxCell>
        <mxCell id="59LHeVAlmlEeKIpCH-CL-79" value="2#" style="rounded=0;whiteSpace=wrap;html=1;strokeColor=none;" vertex="1" parent="1">
          <mxGeometry x="326" y="80" width="10" height="30" as="geometry" />
        </mxCell>
        <mxCell id="59LHeVAlmlEeKIpCH-CL-80" value="3#" style="rounded=0;whiteSpace=wrap;html=1;strokeColor=none;" vertex="1" parent="1">
          <mxGeometry x="61" y="140" width="10" height="30" as="geometry" />
        </mxCell>
        <mxCell id="59LHeVAlmlEeKIpCH-CL-81" value="4#" style="rounded=0;whiteSpace=wrap;html=1;strokeColor=none;" vertex="1" parent="1">
          <mxGeometry x="186" y="140" width="10" height="30" as="geometry" />
        </mxCell>
        <mxCell id="59LHeVAlmlEeKIpCH-CL-82" value="5#" style="rounded=0;whiteSpace=wrap;html=1;strokeColor=none;" vertex="1" parent="1">
          <mxGeometry x="266" y="140" width="10" height="30" as="geometry" />
        </mxCell>
        <mxCell id="59LHeVAlmlEeKIpCH-CL-83" value="6#" style="rounded=0;whiteSpace=wrap;html=1;strokeColor=none;" vertex="1" parent="1">
          <mxGeometry x="386" y="140" width="10" height="30" as="geometry" />
        </mxCell>
        <mxCell id="59LHeVAlmlEeKIpCH-CL-84" value="7#" style="rounded=0;whiteSpace=wrap;html=1;strokeColor=none;" vertex="1" parent="1">
          <mxGeometry x="21" y="220" width="10" height="30" as="geometry" />
        </mxCell>
        <mxCell id="59LHeVAlmlEeKIpCH-CL-87" value="0#" style="rounded=0;whiteSpace=wrap;html=1;strokeColor=none;" vertex="1" parent="1">
          <mxGeometry x="249" y="321" width="10" height="30" as="geometry" />
        </mxCell>
        <mxCell id="59LHeVAlmlEeKIpCH-CL-88" value="1#" style="rounded=0;whiteSpace=wrap;html=1;strokeColor=none;" vertex="1" parent="1">
          <mxGeometry x="145" y="371" width="10" height="30" as="geometry" />
        </mxCell>
        <mxCell id="59LHeVAlmlEeKIpCH-CL-89" value="2#" style="rounded=0;whiteSpace=wrap;html=1;strokeColor=none;" vertex="1" parent="1">
          <mxGeometry x="338" y="370" width="10" height="30" as="geometry" />
        </mxCell>
        <mxCell id="59LHeVAlmlEeKIpCH-CL-90" value="3#" style="rounded=0;whiteSpace=wrap;html=1;strokeColor=none;" vertex="1" parent="1">
          <mxGeometry x="73" y="430" width="10" height="30" as="geometry" />
        </mxCell>
        <mxCell id="59LHeVAlmlEeKIpCH-CL-91" value="4#" style="rounded=0;whiteSpace=wrap;html=1;strokeColor=none;" vertex="1" parent="1">
          <mxGeometry x="198" y="430" width="10" height="30" as="geometry" />
        </mxCell>
        <mxCell id="59LHeVAlmlEeKIpCH-CL-92" value="5#" style="rounded=0;whiteSpace=wrap;html=1;strokeColor=none;" vertex="1" parent="1">
          <mxGeometry x="278" y="430" width="10" height="30" as="geometry" />
        </mxCell>
        <mxCell id="59LHeVAlmlEeKIpCH-CL-93" value="6#" style="rounded=0;whiteSpace=wrap;html=1;strokeColor=none;" vertex="1" parent="1">
          <mxGeometry x="398" y="430" width="10" height="30" as="geometry" />
        </mxCell>
        <mxCell id="59LHeVAlmlEeKIpCH-CL-94" value="7#" style="rounded=0;whiteSpace=wrap;html=1;strokeColor=none;" vertex="1" parent="1">
          <mxGeometry x="33" y="510" width="10" height="30" as="geometry" />
        </mxCell>
        <mxCell id="59LHeVAlmlEeKIpCH-CL-96" style="rounded=0;orthogonalLoop=1;jettySize=auto;html=1;exitX=0;exitY=1;exitDx=0;exitDy=0;entryX=1;entryY=0;entryDx=0;entryDy=0;endArrow=none;endFill=0;" edge="1" parent="1" source="59LHeVAlmlEeKIpCH-CL-98" target="59LHeVAlmlEeKIpCH-CL-99">
          <mxGeometry relative="1" as="geometry" />
        </mxCell>
        <mxCell id="59LHeVAlmlEeKIpCH-CL-97" style="edgeStyle=none;rounded=0;orthogonalLoop=1;jettySize=auto;html=1;exitX=1;exitY=1;exitDx=0;exitDy=0;entryX=0;entryY=0;entryDx=0;entryDy=0;endArrow=none;endFill=0;" edge="1" parent="1" source="59LHeVAlmlEeKIpCH-CL-98" target="59LHeVAlmlEeKIpCH-CL-100">
          <mxGeometry relative="1" as="geometry" />
        </mxCell>
        <mxCell id="59LHeVAlmlEeKIpCH-CL-98" value="1" style="ellipse;whiteSpace=wrap;html=1;aspect=fixed;" vertex="1" parent="1">
          <mxGeometry x="231" y="571" width="40" height="40" as="geometry" />
        </mxCell>
        <mxCell id="59LHeVAlmlEeKIpCH-CL-99" value="2" style="ellipse;whiteSpace=wrap;html=1;aspect=fixed;" vertex="1" parent="1">
          <mxGeometry x="131" y="631" width="40" height="40" as="geometry" />
        </mxCell>
        <mxCell id="59LHeVAlmlEeKIpCH-CL-100" value="5" style="ellipse;whiteSpace=wrap;html=1;aspect=fixed;" vertex="1" parent="1">
          <mxGeometry x="331" y="631" width="40" height="40" as="geometry" />
        </mxCell>
        <mxCell id="59LHeVAlmlEeKIpCH-CL-101" style="rounded=0;orthogonalLoop=1;jettySize=auto;html=1;exitX=0;exitY=1;exitDx=0;exitDy=0;entryX=1;entryY=0;entryDx=0;entryDy=0;endArrow=none;endFill=0;" edge="1" parent="1" source="59LHeVAlmlEeKIpCH-CL-99" target="59LHeVAlmlEeKIpCH-CL-103">
          <mxGeometry relative="1" as="geometry">
            <mxPoint x="136.85786437626894" y="665.1421356237311" as="sourcePoint" />
          </mxGeometry>
        </mxCell>
        <mxCell id="59LHeVAlmlEeKIpCH-CL-102" style="edgeStyle=none;rounded=0;orthogonalLoop=1;jettySize=auto;html=1;exitX=1;exitY=1;exitDx=0;exitDy=0;entryX=0;entryY=0;entryDx=0;entryDy=0;endArrow=none;endFill=0;" edge="1" parent="1" source="59LHeVAlmlEeKIpCH-CL-99" target="59LHeVAlmlEeKIpCH-CL-104">
          <mxGeometry relative="1" as="geometry">
            <mxPoint x="165.14213562373106" y="665.1421356237311" as="sourcePoint" />
          </mxGeometry>
        </mxCell>
        <mxCell id="59LHeVAlmlEeKIpCH-CL-103" value="" style="ellipse;whiteSpace=wrap;html=1;aspect=fixed;" vertex="1" parent="1">
          <mxGeometry x="71" y="691" width="40" height="40" as="geometry" />
        </mxCell>
        <mxCell id="59LHeVAlmlEeKIpCH-CL-104" value="" style="ellipse;whiteSpace=wrap;html=1;aspect=fixed;" vertex="1" parent="1">
          <mxGeometry x="191" y="691" width="40" height="40" as="geometry" />
        </mxCell>
        <mxCell id="59LHeVAlmlEeKIpCH-CL-105" style="rounded=0;orthogonalLoop=1;jettySize=auto;html=1;exitX=0;exitY=1;exitDx=0;exitDy=0;entryX=1;entryY=0;entryDx=0;entryDy=0;endArrow=none;endFill=0;" edge="1" parent="1" source="59LHeVAlmlEeKIpCH-CL-100" target="59LHeVAlmlEeKIpCH-CL-107">
          <mxGeometry relative="1" as="geometry">
            <mxPoint x="336.85786437626894" y="665.1421356237311" as="sourcePoint" />
          </mxGeometry>
        </mxCell>
        <mxCell id="59LHeVAlmlEeKIpCH-CL-106" style="edgeStyle=none;rounded=0;orthogonalLoop=1;jettySize=auto;html=1;exitX=1;exitY=1;exitDx=0;exitDy=0;entryX=0;entryY=0;entryDx=0;entryDy=0;endArrow=none;endFill=0;" edge="1" parent="1" source="59LHeVAlmlEeKIpCH-CL-100" target="59LHeVAlmlEeKIpCH-CL-108">
          <mxGeometry relative="1" as="geometry">
            <mxPoint x="365.14213562373106" y="665.1421356237311" as="sourcePoint" />
          </mxGeometry>
        </mxCell>
        <mxCell id="59LHeVAlmlEeKIpCH-CL-107" value="" style="ellipse;whiteSpace=wrap;html=1;aspect=fixed;" vertex="1" parent="1">
          <mxGeometry x="271" y="691" width="40" height="40" as="geometry" />
        </mxCell>
        <mxCell id="59LHeVAlmlEeKIpCH-CL-108" value="6" style="ellipse;whiteSpace=wrap;html=1;aspect=fixed;" vertex="1" parent="1">
          <mxGeometry x="391" y="691" width="40" height="40" as="geometry" />
        </mxCell>
        <mxCell id="59LHeVAlmlEeKIpCH-CL-109" value="7" style="ellipse;whiteSpace=wrap;html=1;aspect=fixed;" vertex="1" parent="1">
          <mxGeometry x="271" y="691" width="40" height="40" as="geometry" />
        </mxCell>
        <mxCell id="59LHeVAlmlEeKIpCH-CL-110" value="3" style="ellipse;whiteSpace=wrap;html=1;aspect=fixed;" vertex="1" parent="1">
          <mxGeometry x="71" y="691" width="40" height="40" as="geometry" />
        </mxCell>
        <mxCell id="59LHeVAlmlEeKIpCH-CL-111" value="4" style="ellipse;whiteSpace=wrap;html=1;aspect=fixed;" vertex="1" parent="1">
          <mxGeometry x="191" y="691" width="40" height="40" as="geometry" />
        </mxCell>
        <mxCell id="59LHeVAlmlEeKIpCH-CL-112" style="rounded=0;orthogonalLoop=1;jettySize=auto;html=1;exitX=0;exitY=1;exitDx=0;exitDy=0;entryX=0.5;entryY=0;entryDx=0;entryDy=0;endArrow=none;endFill=0;" edge="1" parent="1" source="59LHeVAlmlEeKIpCH-CL-110" target="59LHeVAlmlEeKIpCH-CL-113">
          <mxGeometry relative="1" as="geometry">
            <mxPoint x="76.85786437626894" y="721.0021356237311" as="sourcePoint" />
            <mxPoint x="45.142135623731065" y="758.577864376269" as="targetPoint" />
          </mxGeometry>
        </mxCell>
        <mxCell id="59LHeVAlmlEeKIpCH-CL-113" value="AVAIL" style="ellipse;whiteSpace=wrap;html=1;aspect=fixed;" vertex="1" parent="1">
          <mxGeometry x="31" y="771" width="40" height="40" as="geometry" />
        </mxCell>
        <mxCell id="59LHeVAlmlEeKIpCH-CL-114" value="0#" style="rounded=0;whiteSpace=wrap;html=1;strokeColor=none;" vertex="1" parent="1">
          <mxGeometry x="246" y="541" width="10" height="30" as="geometry" />
        </mxCell>
        <mxCell id="59LHeVAlmlEeKIpCH-CL-115" value="1#" style="rounded=0;whiteSpace=wrap;html=1;strokeColor=none;" vertex="1" parent="1">
          <mxGeometry x="141" y="601" width="10" height="30" as="geometry" />
        </mxCell>
        <mxCell id="59LHeVAlmlEeKIpCH-CL-116" value="2#" style="rounded=0;whiteSpace=wrap;html=1;strokeColor=none;" vertex="1" parent="1">
          <mxGeometry x="346" y="601" width="10" height="30" as="geometry" />
        </mxCell>
        <mxCell id="59LHeVAlmlEeKIpCH-CL-117" value="3#" style="rounded=0;whiteSpace=wrap;html=1;strokeColor=none;" vertex="1" parent="1">
          <mxGeometry x="81" y="661" width="10" height="30" as="geometry" />
        </mxCell>
        <mxCell id="59LHeVAlmlEeKIpCH-CL-118" value="4#" style="rounded=0;whiteSpace=wrap;html=1;strokeColor=none;" vertex="1" parent="1">
          <mxGeometry x="206" y="661" width="10" height="30" as="geometry" />
        </mxCell>
        <mxCell id="59LHeVAlmlEeKIpCH-CL-119" value="5#" style="rounded=0;whiteSpace=wrap;html=1;strokeColor=none;" vertex="1" parent="1">
          <mxGeometry x="286" y="661" width="10" height="30" as="geometry" />
        </mxCell>
        <mxCell id="59LHeVAlmlEeKIpCH-CL-120" value="6#" style="rounded=0;whiteSpace=wrap;html=1;strokeColor=none;" vertex="1" parent="1">
          <mxGeometry x="406" y="661" width="10" height="30" as="geometry" />
        </mxCell>
        <mxCell id="59LHeVAlmlEeKIpCH-CL-121" value="7#" style="rounded=0;whiteSpace=wrap;html=1;strokeColor=none;" vertex="1" parent="1">
          <mxGeometry x="41" y="741" width="10" height="30" as="geometry" />
        </mxCell>
        <mxCell id="59LHeVAlmlEeKIpCH-CL-143" style="rounded=0;orthogonalLoop=1;jettySize=auto;html=1;exitX=0;exitY=1;exitDx=0;exitDy=0;entryX=1;entryY=0;entryDx=0;entryDy=0;endArrow=none;endFill=0;" edge="1" parent="1" source="59LHeVAlmlEeKIpCH-CL-146" target="59LHeVAlmlEeKIpCH-CL-147">
          <mxGeometry relative="1" as="geometry" />
        </mxCell>
        <mxCell id="59LHeVAlmlEeKIpCH-CL-144" style="edgeStyle=none;rounded=0;orthogonalLoop=1;jettySize=auto;html=1;exitX=1;exitY=1;exitDx=0;exitDy=0;entryX=0;entryY=0;entryDx=0;entryDy=0;endArrow=none;endFill=0;" edge="1" parent="1" source="59LHeVAlmlEeKIpCH-CL-146" target="59LHeVAlmlEeKIpCH-CL-148">
          <mxGeometry relative="1" as="geometry" />
        </mxCell>
        <mxCell id="59LHeVAlmlEeKIpCH-CL-145" style="edgeStyle=orthogonalEdgeStyle;rounded=0;orthogonalLoop=1;jettySize=auto;html=1;exitX=0;exitY=0;exitDx=0;exitDy=0;entryX=0.333;entryY=0.017;entryDx=0;entryDy=0;entryPerimeter=0;endArrow=classic;endFill=1;curved=1;dashed=1;" edge="1" parent="1" source="59LHeVAlmlEeKIpCH-CL-146" target="59LHeVAlmlEeKIpCH-CL-147">
          <mxGeometry relative="1" as="geometry">
            <Array as="points">
              <mxPoint x="790" y="226" />
              <mxPoint x="790" y="220" />
              <mxPoint x="703" y="220" />
            </Array>
          </mxGeometry>
        </mxCell>
        <mxCell id="59LHeVAlmlEeKIpCH-CL-146" value="AVAIL" style="ellipse;whiteSpace=wrap;html=1;aspect=fixed;" vertex="1" parent="1">
          <mxGeometry x="790" y="220" width="40" height="40" as="geometry" />
        </mxCell>
        <mxCell id="59LHeVAlmlEeKIpCH-CL-147" value="2" style="ellipse;whiteSpace=wrap;html=1;aspect=fixed;" vertex="1" parent="1">
          <mxGeometry x="690" y="280" width="40" height="40" as="geometry" />
        </mxCell>
        <mxCell id="59LHeVAlmlEeKIpCH-CL-148" value="5" style="ellipse;whiteSpace=wrap;html=1;aspect=fixed;" vertex="1" parent="1">
          <mxGeometry x="890" y="280" width="40" height="40" as="geometry" />
        </mxCell>
        <mxCell id="59LHeVAlmlEeKIpCH-CL-149" style="rounded=0;orthogonalLoop=1;jettySize=auto;html=1;exitX=0;exitY=1;exitDx=0;exitDy=0;entryX=1;entryY=0;entryDx=0;entryDy=0;endArrow=none;endFill=0;" edge="1" parent="1" source="59LHeVAlmlEeKIpCH-CL-147" target="59LHeVAlmlEeKIpCH-CL-151">
          <mxGeometry relative="1" as="geometry">
            <mxPoint x="695.8578643762689" y="314.14213562373106" as="sourcePoint" />
          </mxGeometry>
        </mxCell>
        <mxCell id="59LHeVAlmlEeKIpCH-CL-150" style="edgeStyle=none;rounded=0;orthogonalLoop=1;jettySize=auto;html=1;exitX=1;exitY=1;exitDx=0;exitDy=0;entryX=0;entryY=0;entryDx=0;entryDy=0;endArrow=none;endFill=0;" edge="1" parent="1" source="59LHeVAlmlEeKIpCH-CL-147" target="59LHeVAlmlEeKIpCH-CL-152">
          <mxGeometry relative="1" as="geometry">
            <mxPoint x="724.1421356237311" y="314.14213562373106" as="sourcePoint" />
          </mxGeometry>
        </mxCell>
        <mxCell id="59LHeVAlmlEeKIpCH-CL-151" value="" style="ellipse;whiteSpace=wrap;html=1;aspect=fixed;" vertex="1" parent="1">
          <mxGeometry x="630" y="340" width="40" height="40" as="geometry" />
        </mxCell>
        <mxCell id="59LHeVAlmlEeKIpCH-CL-152" value="" style="ellipse;whiteSpace=wrap;html=1;aspect=fixed;" vertex="1" parent="1">
          <mxGeometry x="750" y="340" width="40" height="40" as="geometry" />
        </mxCell>
        <mxCell id="59LHeVAlmlEeKIpCH-CL-153" style="rounded=0;orthogonalLoop=1;jettySize=auto;html=1;exitX=0;exitY=1;exitDx=0;exitDy=0;entryX=1;entryY=0;entryDx=0;entryDy=0;endArrow=none;endFill=0;" edge="1" parent="1" source="59LHeVAlmlEeKIpCH-CL-148" target="59LHeVAlmlEeKIpCH-CL-155">
          <mxGeometry relative="1" as="geometry">
            <mxPoint x="895.8578643762689" y="314.14213562373106" as="sourcePoint" />
          </mxGeometry>
        </mxCell>
        <mxCell id="59LHeVAlmlEeKIpCH-CL-154" style="edgeStyle=none;rounded=0;orthogonalLoop=1;jettySize=auto;html=1;exitX=1;exitY=1;exitDx=0;exitDy=0;entryX=0;entryY=0;entryDx=0;entryDy=0;endArrow=none;endFill=0;" edge="1" parent="1" source="59LHeVAlmlEeKIpCH-CL-148" target="59LHeVAlmlEeKIpCH-CL-156">
          <mxGeometry relative="1" as="geometry">
            <mxPoint x="924.1421356237311" y="314.14213562373106" as="sourcePoint" />
          </mxGeometry>
        </mxCell>
        <mxCell id="59LHeVAlmlEeKIpCH-CL-155" value="" style="ellipse;whiteSpace=wrap;html=1;aspect=fixed;" vertex="1" parent="1">
          <mxGeometry x="830" y="340" width="40" height="40" as="geometry" />
        </mxCell>
        <mxCell id="59LHeVAlmlEeKIpCH-CL-156" value="6" style="ellipse;whiteSpace=wrap;html=1;aspect=fixed;" vertex="1" parent="1">
          <mxGeometry x="950" y="340" width="40" height="40" as="geometry" />
        </mxCell>
        <mxCell id="59LHeVAlmlEeKIpCH-CL-157" value="7" style="ellipse;whiteSpace=wrap;html=1;aspect=fixed;" vertex="1" parent="1">
          <mxGeometry x="830" y="340" width="40" height="40" as="geometry" />
        </mxCell>
        <mxCell id="59LHeVAlmlEeKIpCH-CL-158" value="3" style="ellipse;whiteSpace=wrap;html=1;aspect=fixed;" vertex="1" parent="1">
          <mxGeometry x="630" y="340" width="40" height="40" as="geometry" />
        </mxCell>
        <mxCell id="59LHeVAlmlEeKIpCH-CL-159" value="4" style="ellipse;whiteSpace=wrap;html=1;aspect=fixed;" vertex="1" parent="1">
          <mxGeometry x="750" y="340" width="40" height="40" as="geometry" />
        </mxCell>
        <mxCell id="59LHeVAlmlEeKIpCH-CL-160" style="rounded=0;orthogonalLoop=1;jettySize=auto;html=1;exitX=0;exitY=1;exitDx=0;exitDy=0;entryX=0.5;entryY=0;entryDx=0;entryDy=0;endArrow=none;endFill=0;" edge="1" parent="1" source="59LHeVAlmlEeKIpCH-CL-158" target="59LHeVAlmlEeKIpCH-CL-161">
          <mxGeometry relative="1" as="geometry">
            <mxPoint x="635.8578643762689" y="370.0021356237311" as="sourcePoint" />
            <mxPoint x="604.1421356237311" y="407.57786437626896" as="targetPoint" />
          </mxGeometry>
        </mxCell>
        <mxCell id="59LHeVAlmlEeKIpCH-CL-161" value="AVAIL" style="ellipse;whiteSpace=wrap;html=1;aspect=fixed;" vertex="1" parent="1">
          <mxGeometry x="590" y="420" width="40" height="40" as="geometry" />
        </mxCell>
        <mxCell id="59LHeVAlmlEeKIpCH-CL-162" style="edgeStyle=orthogonalEdgeStyle;rounded=0;orthogonalLoop=1;jettySize=auto;html=1;exitX=0;exitY=0.5;exitDx=0;exitDy=0;entryX=0;entryY=0;entryDx=0;entryDy=0;endArrow=classic;endFill=1;curved=1;dashed=1;" edge="1" parent="1" source="59LHeVAlmlEeKIpCH-CL-147" target="59LHeVAlmlEeKIpCH-CL-158">
          <mxGeometry relative="1" as="geometry">
            <mxPoint x="709.9978643762689" y="285.85786437626894" as="sourcePoint" />
            <mxPoint x="617.4599999999999" y="340.67999999999995" as="targetPoint" />
            <Array as="points">
              <mxPoint x="690" y="290" />
              <mxPoint x="636" y="290" />
            </Array>
          </mxGeometry>
        </mxCell>
        <mxCell id="59LHeVAlmlEeKIpCH-CL-173" value="1#" style="rounded=0;whiteSpace=wrap;html=1;strokeColor=none;" vertex="1" parent="1">
          <mxGeometry x="714" y="246" width="10" height="30" as="geometry" />
        </mxCell>
        <mxCell id="59LHeVAlmlEeKIpCH-CL-174" value="2#" style="rounded=0;whiteSpace=wrap;html=1;strokeColor=none;" vertex="1" parent="1">
          <mxGeometry x="907" y="245" width="10" height="30" as="geometry" />
        </mxCell>
        <mxCell id="59LHeVAlmlEeKIpCH-CL-175" value="3#" style="rounded=0;whiteSpace=wrap;html=1;strokeColor=none;" vertex="1" parent="1">
          <mxGeometry x="642" y="305" width="10" height="30" as="geometry" />
        </mxCell>
        <mxCell id="59LHeVAlmlEeKIpCH-CL-176" value="4#" style="rounded=0;whiteSpace=wrap;html=1;strokeColor=none;" vertex="1" parent="1">
          <mxGeometry x="767" y="305" width="10" height="30" as="geometry" />
        </mxCell>
        <mxCell id="59LHeVAlmlEeKIpCH-CL-177" value="5#" style="rounded=0;whiteSpace=wrap;html=1;strokeColor=none;" vertex="1" parent="1">
          <mxGeometry x="847" y="305" width="10" height="30" as="geometry" />
        </mxCell>
        <mxCell id="59LHeVAlmlEeKIpCH-CL-178" value="6#" style="rounded=0;whiteSpace=wrap;html=1;strokeColor=none;" vertex="1" parent="1">
          <mxGeometry x="967" y="305" width="10" height="30" as="geometry" />
        </mxCell>
        <mxCell id="59LHeVAlmlEeKIpCH-CL-179" value="7#" style="rounded=0;whiteSpace=wrap;html=1;strokeColor=none;" vertex="1" parent="1">
          <mxGeometry x="602" y="385" width="10" height="30" as="geometry" />
        </mxCell>
        <mxCell id="59LHeVAlmlEeKIpCH-CL-180" style="rounded=0;orthogonalLoop=1;jettySize=auto;html=1;exitX=0;exitY=1;exitDx=0;exitDy=0;entryX=1;entryY=0;entryDx=0;entryDy=0;endArrow=none;endFill=0;" edge="1" parent="1" source="59LHeVAlmlEeKIpCH-CL-182" target="59LHeVAlmlEeKIpCH-CL-183">
          <mxGeometry relative="1" as="geometry" />
        </mxCell>
        <mxCell id="59LHeVAlmlEeKIpCH-CL-181" style="edgeStyle=none;rounded=0;orthogonalLoop=1;jettySize=auto;html=1;exitX=1;exitY=1;exitDx=0;exitDy=0;entryX=0;entryY=0;entryDx=0;entryDy=0;endArrow=none;endFill=0;" edge="1" parent="1" source="59LHeVAlmlEeKIpCH-CL-182" target="59LHeVAlmlEeKIpCH-CL-184">
          <mxGeometry relative="1" as="geometry" />
        </mxCell>
        <mxCell id="59LHeVAlmlEeKIpCH-CL-182" value="2" style="ellipse;whiteSpace=wrap;html=1;aspect=fixed;" vertex="1" parent="1">
          <mxGeometry x="800" y="446" width="40" height="40" as="geometry" />
        </mxCell>
        <mxCell id="59LHeVAlmlEeKIpCH-CL-183" value="3" style="ellipse;whiteSpace=wrap;html=1;aspect=fixed;" vertex="1" parent="1">
          <mxGeometry x="700" y="505.99999999999994" width="40" height="40" as="geometry" />
        </mxCell>
        <mxCell id="59LHeVAlmlEeKIpCH-CL-184" value="5" style="ellipse;whiteSpace=wrap;html=1;aspect=fixed;" vertex="1" parent="1">
          <mxGeometry x="900" y="505.99999999999994" width="40" height="40" as="geometry" />
        </mxCell>
        <mxCell id="59LHeVAlmlEeKIpCH-CL-185" style="rounded=0;orthogonalLoop=1;jettySize=auto;html=1;exitX=0;exitY=1;exitDx=0;exitDy=0;entryX=1;entryY=0;entryDx=0;entryDy=0;endArrow=none;endFill=0;" edge="1" parent="1" source="59LHeVAlmlEeKIpCH-CL-183" target="59LHeVAlmlEeKIpCH-CL-187">
          <mxGeometry relative="1" as="geometry">
            <mxPoint x="705.8578643762689" y="540.1421356237311" as="sourcePoint" />
          </mxGeometry>
        </mxCell>
        <mxCell id="59LHeVAlmlEeKIpCH-CL-186" style="edgeStyle=none;rounded=0;orthogonalLoop=1;jettySize=auto;html=1;exitX=1;exitY=1;exitDx=0;exitDy=0;entryX=0;entryY=0;entryDx=0;entryDy=0;endArrow=none;endFill=0;" edge="1" parent="1" source="59LHeVAlmlEeKIpCH-CL-183" target="59LHeVAlmlEeKIpCH-CL-188">
          <mxGeometry relative="1" as="geometry">
            <mxPoint x="734.1421356237311" y="540.1421356237311" as="sourcePoint" />
          </mxGeometry>
        </mxCell>
        <mxCell id="59LHeVAlmlEeKIpCH-CL-187" value="" style="ellipse;whiteSpace=wrap;html=1;aspect=fixed;" vertex="1" parent="1">
          <mxGeometry x="640" y="566" width="40" height="40" as="geometry" />
        </mxCell>
        <mxCell id="59LHeVAlmlEeKIpCH-CL-188" value="" style="ellipse;whiteSpace=wrap;html=1;aspect=fixed;" vertex="1" parent="1">
          <mxGeometry x="760" y="566" width="40" height="40" as="geometry" />
        </mxCell>
        <mxCell id="59LHeVAlmlEeKIpCH-CL-189" style="rounded=0;orthogonalLoop=1;jettySize=auto;html=1;exitX=0;exitY=1;exitDx=0;exitDy=0;entryX=1;entryY=0;entryDx=0;entryDy=0;endArrow=none;endFill=0;" edge="1" parent="1" source="59LHeVAlmlEeKIpCH-CL-184" target="59LHeVAlmlEeKIpCH-CL-191">
          <mxGeometry relative="1" as="geometry">
            <mxPoint x="905.8578643762689" y="540.1421356237311" as="sourcePoint" />
          </mxGeometry>
        </mxCell>
        <mxCell id="59LHeVAlmlEeKIpCH-CL-190" style="edgeStyle=none;rounded=0;orthogonalLoop=1;jettySize=auto;html=1;exitX=1;exitY=1;exitDx=0;exitDy=0;entryX=0;entryY=0;entryDx=0;entryDy=0;endArrow=none;endFill=0;" edge="1" parent="1" source="59LHeVAlmlEeKIpCH-CL-184" target="59LHeVAlmlEeKIpCH-CL-192">
          <mxGeometry relative="1" as="geometry">
            <mxPoint x="934.1421356237311" y="540.1421356237311" as="sourcePoint" />
          </mxGeometry>
        </mxCell>
        <mxCell id="59LHeVAlmlEeKIpCH-CL-191" value="" style="ellipse;whiteSpace=wrap;html=1;aspect=fixed;" vertex="1" parent="1">
          <mxGeometry x="840" y="566" width="40" height="40" as="geometry" />
        </mxCell>
        <mxCell id="59LHeVAlmlEeKIpCH-CL-192" value="6" style="ellipse;whiteSpace=wrap;html=1;aspect=fixed;" vertex="1" parent="1">
          <mxGeometry x="960" y="566" width="40" height="40" as="geometry" />
        </mxCell>
        <mxCell id="59LHeVAlmlEeKIpCH-CL-193" value="7" style="ellipse;whiteSpace=wrap;html=1;aspect=fixed;" vertex="1" parent="1">
          <mxGeometry x="840" y="566" width="40" height="40" as="geometry" />
        </mxCell>
        <mxCell id="59LHeVAlmlEeKIpCH-CL-194" value="9" style="ellipse;whiteSpace=wrap;html=1;aspect=fixed;" vertex="1" parent="1">
          <mxGeometry x="640" y="566" width="40" height="40" as="geometry" />
        </mxCell>
        <mxCell id="59LHeVAlmlEeKIpCH-CL-195" value="4" style="ellipse;whiteSpace=wrap;html=1;aspect=fixed;" vertex="1" parent="1">
          <mxGeometry x="760" y="566" width="40" height="40" as="geometry" />
        </mxCell>
        <mxCell id="59LHeVAlmlEeKIpCH-CL-196" style="rounded=0;orthogonalLoop=1;jettySize=auto;html=1;exitX=0;exitY=1;exitDx=0;exitDy=0;entryX=0.5;entryY=0;entryDx=0;entryDy=0;endArrow=none;endFill=0;" edge="1" parent="1" source="59LHeVAlmlEeKIpCH-CL-194" target="59LHeVAlmlEeKIpCH-CL-197">
          <mxGeometry relative="1" as="geometry">
            <mxPoint x="645.8578643762689" y="596.0021356237311" as="sourcePoint" />
            <mxPoint x="614.1421356237311" y="633.577864376269" as="targetPoint" />
          </mxGeometry>
        </mxCell>
        <mxCell id="59LHeVAlmlEeKIpCH-CL-197" value="AVAIL" style="ellipse;whiteSpace=wrap;html=1;aspect=fixed;" vertex="1" parent="1">
          <mxGeometry x="600" y="646" width="40" height="40" as="geometry" />
        </mxCell>
        <mxCell id="59LHeVAlmlEeKIpCH-CL-198" value="0#" style="rounded=0;whiteSpace=wrap;html=1;strokeColor=none;" vertex="1" parent="1">
          <mxGeometry x="815" y="416" width="10" height="30" as="geometry" />
        </mxCell>
        <mxCell id="59LHeVAlmlEeKIpCH-CL-199" value="1#" style="rounded=0;whiteSpace=wrap;html=1;strokeColor=none;" vertex="1" parent="1">
          <mxGeometry x="710" y="476" width="10" height="30" as="geometry" />
        </mxCell>
        <mxCell id="59LHeVAlmlEeKIpCH-CL-200" value="2#" style="rounded=0;whiteSpace=wrap;html=1;strokeColor=none;" vertex="1" parent="1">
          <mxGeometry x="915" y="476" width="10" height="30" as="geometry" />
        </mxCell>
        <mxCell id="59LHeVAlmlEeKIpCH-CL-201" value="3#" style="rounded=0;whiteSpace=wrap;html=1;strokeColor=none;" vertex="1" parent="1">
          <mxGeometry x="650" y="536" width="10" height="30" as="geometry" />
        </mxCell>
        <mxCell id="59LHeVAlmlEeKIpCH-CL-202" value="4#" style="rounded=0;whiteSpace=wrap;html=1;strokeColor=none;" vertex="1" parent="1">
          <mxGeometry x="775" y="536" width="10" height="30" as="geometry" />
        </mxCell>
        <mxCell id="59LHeVAlmlEeKIpCH-CL-203" value="5#" style="rounded=0;whiteSpace=wrap;html=1;strokeColor=none;" vertex="1" parent="1">
          <mxGeometry x="855" y="536" width="10" height="30" as="geometry" />
        </mxCell>
        <mxCell id="59LHeVAlmlEeKIpCH-CL-204" value="6#" style="rounded=0;whiteSpace=wrap;html=1;strokeColor=none;" vertex="1" parent="1">
          <mxGeometry x="975" y="536" width="10" height="30" as="geometry" />
        </mxCell>
        <mxCell id="59LHeVAlmlEeKIpCH-CL-205" value="7#" style="rounded=0;whiteSpace=wrap;html=1;strokeColor=none;" vertex="1" parent="1">
          <mxGeometry x="610" y="616" width="10" height="30" as="geometry" />
        </mxCell>
        <mxCell id="59LHeVAlmlEeKIpCH-CL-207" style="rounded=0;orthogonalLoop=1;jettySize=auto;html=1;exitX=0.5;exitY=0;exitDx=0;exitDy=0;entryX=1;entryY=1;entryDx=0;entryDy=0;endArrow=none;endFill=0;" edge="1" parent="1" source="59LHeVAlmlEeKIpCH-CL-206" target="59LHeVAlmlEeKIpCH-CL-45">
          <mxGeometry relative="1" as="geometry">
            <mxPoint x="93.14213562372174" y="499.14213562372174" as="targetPoint" />
          </mxGeometry>
        </mxCell>
        <mxCell id="59LHeVAlmlEeKIpCH-CL-206" value="9" style="ellipse;whiteSpace=wrap;html=1;aspect=fixed;" vertex="1" parent="1">
          <mxGeometry x="91" y="545" width="40" height="40" as="geometry" />
        </mxCell>
        <mxCell id="59LHeVAlmlEeKIpCH-CL-208" value="8#" style="rounded=0;whiteSpace=wrap;html=1;strokeColor=none;" vertex="1" parent="1">
          <mxGeometry x="101" y="220" width="10" height="30" as="geometry" />
        </mxCell>
        <mxCell id="59LHeVAlmlEeKIpCH-CL-214" style="rounded=0;orthogonalLoop=1;jettySize=auto;html=1;exitX=0.5;exitY=0;exitDx=0;exitDy=0;entryX=1;entryY=1;entryDx=0;entryDy=0;endArrow=none;endFill=0;" edge="1" parent="1" source="59LHeVAlmlEeKIpCH-CL-215" target="59LHeVAlmlEeKIpCH-CL-17">
          <mxGeometry relative="1" as="geometry">
            <mxPoint x="85.14213562373084" y="202.07213562373084" as="targetPoint" />
          </mxGeometry>
        </mxCell>
        <mxCell id="59LHeVAlmlEeKIpCH-CL-215" value="9" style="ellipse;whiteSpace=wrap;html=1;aspect=fixed;" vertex="1" parent="1">
          <mxGeometry x="81" y="247.93" width="40" height="40" as="geometry" />
        </mxCell>
        <mxCell id="59LHeVAlmlEeKIpCH-CL-216" style="rounded=0;orthogonalLoop=1;jettySize=auto;html=1;exitX=0.5;exitY=0;exitDx=0;exitDy=0;entryX=1;entryY=1;entryDx=0;entryDy=0;endArrow=none;endFill=0;" edge="1" parent="1" source="59LHeVAlmlEeKIpCH-CL-217" target="59LHeVAlmlEeKIpCH-CL-110">
          <mxGeometry relative="1" as="geometry">
            <mxPoint x="105.14213562373084" y="725.1421356237308" as="targetPoint" />
          </mxGeometry>
        </mxCell>
        <mxCell id="59LHeVAlmlEeKIpCH-CL-217" value="9" style="ellipse;whiteSpace=wrap;html=1;aspect=fixed;" vertex="1" parent="1">
          <mxGeometry x="101" y="771" width="40" height="40" as="geometry" />
        </mxCell>
        <mxCell id="59LHeVAlmlEeKIpCH-CL-221" style="rounded=0;orthogonalLoop=1;jettySize=auto;html=1;exitX=0.5;exitY=0;exitDx=0;exitDy=0;entryX=1;entryY=1;entryDx=0;entryDy=0;endArrow=none;endFill=0;" edge="1" parent="1" source="59LHeVAlmlEeKIpCH-CL-222" target="59LHeVAlmlEeKIpCH-CL-158">
          <mxGeometry relative="1" as="geometry">
            <mxPoint x="664.1421356237308" y="374.14213562373084" as="targetPoint" />
          </mxGeometry>
        </mxCell>
        <mxCell id="59LHeVAlmlEeKIpCH-CL-222" value="9" style="ellipse;whiteSpace=wrap;html=1;aspect=fixed;" vertex="1" parent="1">
          <mxGeometry x="660" y="420" width="40" height="40" as="geometry" />
        </mxCell>
        <mxCell id="59LHeVAlmlEeKIpCH-CL-223" style="edgeStyle=orthogonalEdgeStyle;rounded=0;orthogonalLoop=1;jettySize=auto;html=1;exitX=1;exitY=0.5;exitDx=0;exitDy=0;entryX=1;entryY=0.5;entryDx=0;entryDy=0;endArrow=classic;endFill=1;curved=1;dashed=1;" edge="1" parent="1" source="59LHeVAlmlEeKIpCH-CL-158" target="59LHeVAlmlEeKIpCH-CL-222">
          <mxGeometry relative="1" as="geometry">
            <mxPoint x="700" y="310" as="sourcePoint" />
            <mxPoint x="645.8578643762689" y="355.85786437626894" as="targetPoint" />
            <Array as="points">
              <mxPoint x="670" y="350" />
              <mxPoint x="720" y="350" />
              <mxPoint x="720" y="440" />
            </Array>
          </mxGeometry>
        </mxCell>
        <mxCell id="59LHeVAlmlEeKIpCH-CL-226" style="rounded=0;orthogonalLoop=1;jettySize=auto;html=1;exitX=0.5;exitY=0;exitDx=0;exitDy=0;entryX=1;entryY=1;entryDx=0;entryDy=0;endArrow=none;endFill=0;" edge="1" parent="1" source="59LHeVAlmlEeKIpCH-CL-227">
          <mxGeometry relative="1" as="geometry">
            <mxPoint x="674.1421356237217" y="600.1421356237217" as="targetPoint" />
          </mxGeometry>
        </mxCell>
        <mxCell id="59LHeVAlmlEeKIpCH-CL-227" value="AVAIL" style="ellipse;whiteSpace=wrap;html=1;aspect=fixed;" vertex="1" parent="1">
          <mxGeometry x="670" y="646" width="40" height="40" as="geometry" />
        </mxCell>
        <mxCell id="59LHeVAlmlEeKIpCH-CL-229" value="" style="endArrow=none;html=1;rounded=0;dashed=1;dashPattern=1 2;strokeWidth=0.5;" edge="1" parent="1">
          <mxGeometry width="50" height="50" relative="1" as="geometry">
            <mxPoint x="510" y="740" as="sourcePoint" />
            <mxPoint x="510" y="90" as="targetPoint" />
          </mxGeometry>
        </mxCell>
        <mxCell id="59LHeVAlmlEeKIpCH-CL-230" value="&lt;font style=&quot;font-size: 18px;&quot;&gt;remove_min()&lt;/font&gt;" style="rounded=1;whiteSpace=wrap;html=1;" vertex="1" parent="1">
          <mxGeometry x="155" y="285" width="180" height="30" as="geometry" />
        </mxCell>
        <mxCell id="59LHeVAlmlEeKIpCH-CL-231" value="&lt;font style=&quot;font-size: 18px;&quot;&gt;remove_min() again&lt;/font&gt;" style="rounded=1;whiteSpace=wrap;html=1;" vertex="1" parent="1">
          <mxGeometry x="610" y="150" width="360" height="30" as="geometry" />
        </mxCell>
        <mxCell id="59LHeVAlmlEeKIpCH-CL-232" value="8#" style="rounded=0;whiteSpace=wrap;html=1;strokeColor=none;" vertex="1" parent="1">
          <mxGeometry x="111" y="511" width="10" height="30" as="geometry" />
        </mxCell>
        <mxCell id="59LHeVAlmlEeKIpCH-CL-233" value="8#" style="rounded=0;whiteSpace=wrap;html=1;strokeColor=none;" vertex="1" parent="1">
          <mxGeometry x="121" y="741" width="10" height="30" as="geometry" />
        </mxCell>
        <mxCell id="59LHeVAlmlEeKIpCH-CL-234" value="8#" style="rounded=0;whiteSpace=wrap;html=1;strokeColor=none;" vertex="1" parent="1">
          <mxGeometry x="685" y="390" width="10" height="30" as="geometry" />
        </mxCell>
        <mxCell id="59LHeVAlmlEeKIpCH-CL-235" value="8#" style="rounded=0;whiteSpace=wrap;html=1;strokeColor=none;" vertex="1" parent="1">
          <mxGeometry x="690" y="611" width="10" height="30" as="geometry" />
        </mxCell>
      </root>
    </mxGraphModel>
  </diagram>
</mxfile>
